<?xml version="1.0" encoding="utf-8"?>
<!-- Generator: Adobe Illustrator 16.0.0, SVG Export Plug-In . SVG Version: 6.00 Build 0)  -->
<!DOCTYPE svg PUBLIC "-//W3C//DTD SVG 1.1//EN" "http://www.w3.org/Graphics/SVG/1.1/DTD/svg11.dtd">
<svg version="1.1" id="Layer_1" xmlns="http://www.w3.org/2000/svg" xmlns:xlink="http://www.w3.org/1999/xlink" x="0px" y="0px"
	 width="123.974px" height="88.878px" viewBox="0 0 123.974 88.878" enable-background="new 0 0 123.974 88.878"
	 xml:space="preserve">
<path fill="#7AC363" d="M14.103,8.428c0.698-2.825-1.477-7.282-4.815-6.528C7.5,2.275,6.102,3.28,5.093,4.85
	C2.607,8.553,1.519,15.333,2.762,24.937c0.699,5.271,1.71,8.975,3.186,11.048c2.407,3.577,5.358,1.568,6.679,0.063
	c0.622-0.69,1.011-1.507,1.166-2.449c0.077-0.501,0.621-0.815,1.242-0.753c0.622,0.063,1.01,0.504,0.933,1.004
	c-0.389,2.323-2.175,4.521-4.583,5.461c-2.563,1.068-5.593,0.252-7.457-2.447c-3.107-4.583-4.582-17.45-3.651-23.916
	C0.82,8.992,1.753,6.043,3.073,3.971C4.316,2.15,6.49,0.645,8.666,0.142c2.563-0.501,5.049,0.313,6.369,2.636
	c1.32,2.197,1.709,4.206,1.242,6.026c-0.078,0.502-0.698,0.754-1.32,0.69C14.335,9.432,14.025,8.93,14.103,8.428z"/>
<path fill="#7AC363" d="M38.723,13.323c0.233,7.721-0.466,16.07-1.165,20.087c-0.388,2.323-1.01,4.08-1.94,4.896
	c-1.32,1.068-3.807,1.821-5.749,1.821c-8.466,0-9.709-7.47-10.331-16.822c-0.621-7.847-0.231-16.258,3.885-20.024
	c3.106-2.825,10.875-3.515,13.748,2.511c0.854,1.82,1.397,4.206,1.553,7.218V13.323z M36.471,12.257
	c-0.389-4.771-1.864-9.228-6.603-9.29c-2.098,0-3.65,0.502-4.738,1.443c-3.495,3.265-3.961,11.048-3.417,18.769
	c0.699,9.101,1.864,15.191,8.155,15.191c1.321,0,3.34-0.566,4.039-1.318c0.233-0.189,0.544-0.629,0.778-1.256
	c0.231-0.691,0.386-1.57,0.619-2.637c0.39-1.947,0.699-4.457,0.933-7.469c0.389-5.211,0.467-9.605,0.233-13.184V12.257z"/>
<path fill="#7AC363" d="M61.015,13.323c0.232,7.721-0.466,16.07-1.165,20.087c-0.389,2.323-1.01,4.08-1.943,4.896
	c-1.318,1.068-3.805,1.821-5.746,1.821c-8.468,0-9.709-7.47-10.332-16.822c-0.62-7.847-0.232-16.258,3.886-20.024
	c3.106-2.825,10.874-3.515,13.747,2.511c0.854,1.82,1.398,4.206,1.554,7.218V13.323z M58.762,12.257
	c-0.389-4.771-1.864-9.228-6.602-9.29c-2.098,0-3.65,0.502-4.739,1.443c-3.494,3.265-3.96,11.048-3.417,18.769
	c0.699,9.101,1.864,15.191,8.156,15.191c1.32,0,3.339-0.566,4.039-1.318c0.232-0.189,0.543-0.629,0.775-1.256
	c0.234-0.691,0.389-1.57,0.623-2.637c0.387-1.947,0.698-4.457,0.932-7.469c0.388-5.211,0.465-9.605,0.232-13.184V12.257z"/>
<path fill="#7AC363" d="M67.771,34.666c0,1.318,0,2.386,0.077,3.138v0.815c0.156,0.064,0.235,0.064,0.39,0.064
	c0.233,0.063,0.544,0.063,1.243,0.125c0.543,0,1.242,0,2.019,0c0.39,0.063,2.098,0.063,5.126,0.063c0.623,0,1.088,0.376,1.088,0.88
	c0,0.5-0.465,0.877-1.088,0.877H71.5c-1.32,0-2.408-0.063-3.184-0.125c-0.933-0.063-1.942-0.125-2.331-0.628
	c-0.077-0.062-0.154-0.187-0.232-0.376c-0.078-0.063-0.078-0.125-0.078-0.189v0.379c0-0.566-0.077-0.942-0.077-1.508
	c0-0.125,0-0.252,0-0.377c0-0.752,0-1.819-0.078-3.138c0-0.628,0-1.382,0.078-2.26c0-0.88,0-1.508,0-1.884v-1.066
	c-0.078-2.072,0-4.833,0.077-8.35c0.156-7.029,0.156-12.679-0.699-17.763c-0.077-0.502,0.312-0.942,0.933-1.004
	c0.621-0.064,1.166,0.25,1.243,0.752c0.933,5.21,0.933,11.048,0.697,18.077c-0.077,3.579-0.153,6.34-0.077,8.287V34.666z"/>
<path fill="#7AC363" d="M122.41,22.098c0.245-0.029,0.495-0.06,0.743-0.1c0.3-0.13,0.559-0.291,0.69-0.513
	c0.258-0.435,0.106-0.912-0.203-1.305c-0.225-0.128-0.493-0.225-0.782-0.298c-0.729,0.027-1.607,0.03-2.638,0.03h-5.883
	c-2.198,0.076-5.315,0-9.356-0.077c-7.936-0.235-13.957-0.039-20.402,0.418c-0.571,0.04-0.934,0.713-0.862,1.334
	c0.07,0.621,1.049,0.952,1.615,0.875c5.741-0.855,11.644-0.609,19.579-0.453c3.971,0.077,7.088,0.155,9.427,0.077h3.331
	c0.991,0.078,1.843,0.078,2.552,0.078C121.055,22.121,121.768,22.105,122.41,22.098z"/>
<path fill="#7AC363" d="M99.922,11.229c-7.472-0.406-10.334-1.113-15.877-0.312c-0.533,0.066-0.774,0.536-0.706,1.07
	c0.066,0.533,0.632,0.85,1.165,0.783c5.408-0.734,10.157,0.221,17.636,0.355c0,0,11.086,1.062,10.336-4.397
	s-10.055-2.563-10.055-2.563s-0.618,0.386-0.618,0.718c0,0.334,0.173,1.844,1.028,1.573c0.854-0.271,6.789-2.604,7.371,0.521
	C110.787,12.104,103.338,11.415,99.922,11.229z"/>
<path fill="#7AC363" d="M105.886,31.065c-7.48,0.173-15.918,0.72-21.461-0.082c-0.533-0.066-0.774-0.536-0.706-1.07
	c0.066-0.533,0.547-1.181,1.08-1.114c5.408,0.734,14.706,0.598,22.703,0.089c0,0,11.646-1.072,10.896,4.387
	s-10.055,2.563-10.055,2.563s-0.618-0.385-0.618-0.719c0-0.332,0.173-1.843,1.028-1.572c0.854,0.271,6.789,2.604,7.371-0.521
	C116.709,29.899,108.978,30.994,105.886,31.065z"/>
<g>
	<path fill="#7AC363" d="M33.178,50.022c0.077-0.5,0.775-0.752,1.397-0.689c0.543,0.064,0.854,0.628,0.775,1.068l-1.553,5.648
		c-0.933,3.829-2.02,8.914-2.641,11.737l-1.243,6.277l-1.087,5.712c-0.232,1.004-0.621,2.637-1.165,4.834
		c-0.311,1.067-0.544,1.883-0.775,2.51c-0.079,0.377-0.235,0.691-0.313,0.881c0,0.062-0.077,0.124-0.077,0.187
		c0,0.064-0.155,0.188-0.232,0.378c-0.233,0.188-0.544,0.313-0.934,0.313c-0.232,0-0.466-0.063-0.697-0.188l-0.155-0.125
		c-0.078-0.064-0.157-0.127-0.157-0.189v-0.062l-0.077-0.063l-0.078-0.189l-0.388-0.753l-1.088-2.512
		c-1.164-2.637-1.863-4.58-2.252-5.836l-0.776-2.889c-1.243-4.646-1.01-4.456-1.864,0l-0.621,3.14c0,0.125-0.078,0.753-0.232,1.882
		c-0.313,1.884-0.545,3.516-0.934,4.834c-0.154,0.502-0.231,0.878-0.466,1.443c-0.078,0.063-0.078,0.189-0.155,0.252
		c-0.233,0.314-0.698,0.752-1.398,0.752c-0.31,0-0.621-0.062-0.854-0.251c-0.077-0.063-0.077-0.187-0.156-0.251
		c-0.077-0.063-0.154-0.188-0.231-0.313c-0.077-0.189-0.233-0.503-0.388-0.879l-0.933-2.512c-0.854-2.323-1.398-3.891-1.709-4.709
		c-0.155-0.563-0.311-0.939-0.467-1.442c-0.154-0.438-0.31-0.88-0.466-1.381l-0.621-1.946c-0.156-0.565-0.311-1.256-0.543-2.133
		l-0.466-2.01c-0.078-0.439-0.233-1.193-0.467-2.26s-0.311-1.695-0.389-1.946c-0.077-0.313-0.388-2.261-0.622-3.39
		c-0.076-0.564-0.155-0.941-0.232-1.506c-0.233-0.754-0.542-2.197-1.009-4.205c-0.699-3.076-1.088-5.398-1.088-7.031
		c0-0.501,0.466-0.879,1.088-0.879c0.621,0,1.086,0.378,1.086,0.879c0,1.57,0.39,3.766,1.088,6.592
		c0.699,2.887,1.088,4.581,1.165,5.146c0.078,0.252,0.155,0.879,0.389,1.819l0.312,1.884l0.31,1.758
		c0.312,1.758,0.389,2.135,0.777,3.641c0.155,0.752,0.312,1.381,0.466,1.884l0.466,1.694c0.154,0.69,0.312,1.256,0.544,1.82
		l0.621,1.758c0,0.063,0.467,1.381,1.398,4.018c0.467,0.878,1.164,1.443,1.164,1.443c0.155-0.753,0.313-1.695,0.468-2.826
		c0.077-0.5,0.155-0.877,0.155-1.129c0.077-0.565,0.154-0.941,0.31-1.506l1.942-9.855c0.078-0.628,0.078-1.004-0.077-1.633
		c-1.632-6.088-2.72-11.424-3.263-15.817c-0.077-0.438,0.388-0.941,1.01-1.004c0.543,0,1.166,0.376,1.166,0.88
		c0.31,2.385,0.697,4.957,1.319,7.658c1.01,4.267,0.854,4.707,1.864,0.063l1.787-7.973c0.077-0.504,0.697-0.753,1.32-0.69
		c0.62,0.063,0.933,0.565,0.853,1.066c-1.086,4.771-2.329,9.981-3.416,15.755c-0.078,0.629-0.078,1.005,0.077,1.57l2.874,10.357
		c0.31,1.191,1.011,3.014,2.175,5.586l-0.622-1.443c0.468,1.066,1.165,1.883,1.321,1.443c1.164-4.268,1.243-4.771,2.253-10.357
		l1.242-6.402l1.243-5.523c0.466-2.26,0.932-4.331,1.396-6.277L33.178,50.022z"/>
	<path fill="#7AC363" d="M38.925,86.807c1.553-0.062,3.107-0.062,4.659-0.124c1.32,0,1.632-0.252,1.632-0.629
		c0-1.632-0.233-3.641-0.155-6.592c0.078-1.442,0.078-2.385,0.078-2.823c0-1.442,0-3.517,0.077-6.277
		c0.077-2.699,0.077-4.708,0.077-5.899c0-4.145-0.154-7.723-0.389-10.672c-0.077-0.754,0.078-1.317-1.629-1.193
		c-1.476,0.125-2.719,0.189-3.808,0.314c-0.543,0.063-1.164-0.252-1.242-0.752c-0.077-0.441,0.311-0.942,0.932-1.005
		c2.485-0.313,4.972-0.376,9.089-0.313c2.018,0.062,3.261,0.062,3.806,0.062c0.62,0,1.087,0.376,1.087,0.88
		c0,0.501-0.467,0.877-1.087,0.877c-0.155,0-1.243-0.063-3.34-0.063c-2.253,0-1.632,0.439-1.555,1.318
		c0.233,2.699,0.312,6.216,0.312,10.547c0,1.191,0,3.2-0.078,5.899c-0.077,2.761-0.077,4.835-0.077,6.277c0,0.501,0,1.443,0,2.888
		c-0.078,2.824,0.155,5.271,0.232,6.276c0.078,0.88-0.232,0.88,1.475,0.942c0.778,0,1.556,0,2.331,0.062
		c0.623,0,1.088,0.44,1.088,0.942c-0.078,0.503-0.621,0.879-1.243,0.816c-4.271-0.127-8.311-0.127-12.117,0
		c-0.621,0.063-1.164-0.313-1.164-0.816C37.837,87.247,38.304,86.807,38.925,86.807z"/>
	<path fill="#7AC363" d="M64.012,57.87l7.379,11.549c1.166,1.947,2.021,4.583,1.785-0.376c-0.153-2.886-0.153-5.964,0-8.726
		c0.235-3.891,0.235-6.967-0.387-9.666c-0.078-0.502,0.233-1.005,0.854-1.066c0.621-0.063,1.243,0.188,1.32,0.689
		c0.62,2.951,0.698,6.215,0.465,10.17c-0.077,2.009-0.154,3.515-0.154,4.52c0.154,4.832,0.31,8.6,0.544,12.866
		c0.155,3.517,0.389,6.654,0.776,9.604c0.077,0.504-0.388,0.941-1.011,0.941c-0.62,0.063-1.165-0.313-1.165-0.814
		c-0.387-2.951-0.619-6.34-0.854-9.98c-0.077-0.566-0.232-1.005-0.543-1.508l-11.03-17.325l0.233,0.378
		c-0.699-1.131-1.787-2.763-1.787,0.377c0,5.271,0,9.791-0.232,17.011c-0.155,4.329-0.233,7.657-0.233,9.917
		c0,0.503-0.467,0.879-1.087,0.879c-0.622,0-1.088-0.376-1.088-0.879c0-2.26,0.078-5.588,0.232-9.917
		c0.079-4.331,0.156-6.968,0.156-7.784c0.156-7.094,0-12.994-0.543-17.575c-0.078-0.127,0-0.189,0-0.313
		c0.076-0.189-0.078-0.504,0.466-1.005c0.154-0.127,0.389-0.251,0.622-0.251c0.621-0.063,1.164,0.251,1.241,0.752
		c0.233,1.256,1.088,2.889,1.554,3.703c0.232,0.441,0.621,1.068,1.242,2.01L64.012,57.87z"/>
	<path fill="#7AC363" d="M96.947,67.161c-1.01,8.975-6.137,18.642-11.652,20.84c-0.232,0.124-0.387,0.124-0.542,0.124
		c-0.468-0.063-0.623,0.189-1.321,0.189c-0.233,0.062-0.544,0-0.776-0.127c-0.232-0.125-0.389-0.313-0.467-0.563
		c-0.389-1.821-0.621-4.145-0.543-7.03c0.077-3.893,0.154-6.153,0.154-6.843c0-0.125-0.077-1.443-0.232-3.891
		c-0.311-4.959-0.388-6.026-0.388-10.232c-0.078-4.08,0.232-6.969,0.776-8.977c0-0.377-0.078-0.69-0.078-0.69
		c0-0.501,0.466-0.878,1.087-0.878C94.072,49.083,98.112,57.054,96.947,67.161z M85.684,51.092c-0.932-0.189-1.633,0.187-1.786,0.94
		c-0.389,1.883-0.544,4.269-0.467,7.596c0,4.08,0,5.084,0.311,10.043c0.156,2.512,0.232,3.83,0.232,3.955
		c0.077,0.501,0,2.824-0.076,6.968c-0.078,2.385,0.076,4.331,0.309,5.837c0.078,0,0.078,0,0.157-0.063
		c4.426-1.82,9.32-10.672,10.33-19.396C95.782,58.058,92.674,52.159,85.684,51.092z"/>
	<path fill="#7AC363" d="M103.237,83.856c-0.312-0.564-0.544-1.066-0.621-1.883c-0.077-0.375-0.077-0.689-0.156-0.941
		c-0.077-0.189-0.077-0.565-0.077-1.004v-2.637c0-0.502,0.465-0.878,1.088-0.878c0.62,0,1.087,0.376,1.087,0.878v1.443
		c0,0.064,0,0.313,0.078,0.627c0,0.377,0,0.629,0,0.756c0,0.249,0.077,1.004,0.154,1.318c0.078,0.187,0.078,0.376,0.155,0.625
		c0.078,0.252,0.155,0.441,0.232,0.629c0.078,0.188,0.156,0.376,0.234,0.564c0.077,0.189,0.154,0.377,0.312,0.566
		c1.165,1.694,3.571,2.385,6.29,1.882c2.719-0.438,4.894-1.882,5.438-3.577c0.233-0.816,0.389-1.569,0.389-2.26
		c0-1.381-0.233-2.447-0.933-3.641s-1.398-1.947-2.642-3.014c-0.697-0.565-1.32-1.004-1.863-1.381l-1.942-1.318
		c-0.232-0.125-0.465-0.313-0.854-0.627c-2.408-1.506-3.107-1.947-4.971-3.642c-1.942-1.694-2.563-2.823-3.107-4.771
		c-0.232-0.941-0.311-1.945-0.078-3.012c1.01-5.588,5.903-8.853,10.875-8.539c5.203,0.314,8.699,4.27,7.533,10.232
		c-0.077,0.502-0.622,0.816-1.242,0.754c-0.622-0.063-1.01-0.502-0.932-1.005c0.932-5.084-1.787-7.972-5.515-8.159
		c-3.729-0.252-7.612,2.26-8.544,6.968c-0.389,2.071,0,3.766,1.863,5.522c1.786,1.758,2.719,2.447,5.749,4.457
		c0.309,0.188,0.542,0.313,0.621,0.377c1.63,1.067,2.485,1.695,3.961,2.887c1.476,1.193,2.174,2.071,3.106,3.454
		c0.854,1.38,1.165,2.698,1.165,4.394c-0.077,1.757-0.389,4.205-3.107,5.961c-2.719,1.76-6.368,2.323-9.554,1.445
		c-1.63-0.44-2.873-1.256-3.728-2.512L103.237,83.856z"/>
</g>
</svg>
