<?xml version="1.0" encoding="utf-8"?>
<!-- Generator: Adobe Illustrator 16.0.0, SVG Export Plug-In . SVG Version: 6.00 Build 0)  -->
<!DOCTYPE svg PUBLIC "-//W3C//DTD SVG 1.1//EN" "http://www.w3.org/Graphics/SVG/1.1/DTD/svg11.dtd">
<svg version="1.1" id="Layer_1" xmlns="http://www.w3.org/2000/svg" xmlns:xlink="http://www.w3.org/1999/xlink" x="0px" y="0px"
	 width="309.975px" height="289.125px" viewBox="0 0 309.975 289.125" enable-background="new 0 0 309.975 289.125"
	 xml:space="preserve">
<g>
	<g>
		<path fill="#FFFFFF" d="M24.931,267.204c0.151,6.195-0.303,12.892-0.754,16.115c-0.254,1.865-0.654,3.274-1.26,3.929
			c-0.857,0.857-2.469,1.46-3.726,1.46c-5.489,0-6.295-5.994-6.698-13.495c-0.403-6.294-0.151-13.043,2.517-16.066
			c2.015-2.266,7.049-2.817,8.913,2.017c0.554,1.46,0.908,3.372,1.008,5.789V267.204z M23.471,266.349
			c-0.251-3.829-1.209-7.403-4.28-7.455c-1.36,0-2.369,0.403-3.072,1.16c-2.266,2.618-2.568,8.864-2.217,15.056
			c0.454,7.303,1.208,12.189,5.289,12.189c0.854,0,2.166-0.454,2.617-1.061c0.151-0.151,0.354-0.502,0.503-1.005
			c0.151-0.554,0.253-1.26,0.405-2.115c0.251-1.563,0.452-3.575,0.604-5.992c0.251-4.18,0.303-7.706,0.151-10.577V266.349z"/>
		<path fill="#FFFFFF" d="M31.985,272.239c-0.151,0.053,0,0.354,0,0.354c1.611,2.668,2.518,4.986,4.483,9.872
			c0.655,1.763,1.309,3.172,1.863,4.18c0.452,0.854-0.857,1.56-1.309,0.703c-0.554-1.057-1.208-2.517-1.914-4.332
			c-2.317-5.992-3.778-9.166-4.532-9.918c-0.051-0.054-0.103-0.054-0.151-0.151c-0.052,0.352-0.203,1.006-0.203,1.56
			c-0.048,0.906-0.048,1.761-0.1,2.62c0,0.401-0.052,1.207-0.1,2.417c-0.151,2.466-0.151,3.169-0.151,5.084
			c0,0.957,0.048,1.865,0.1,2.62c0.051,0.403-0.251,0.754-0.655,0.754c-0.403,0.051-0.754-0.249-0.754-0.654
			c-0.103-0.754-0.151-1.66-0.151-2.668c0-1.966,0-2.771,0.151-5.237c0.049-1.209,0.1-2.015,0.151-2.418
			c0.3-6.9,0.2-12.892-0.203-17.927c-0.051-0.454-0.303-0.806-0.203-1.26c0.051-0.103,0.051-0.151,0.103-0.252
			c0.049-0.151,0.2-0.303,0.403-0.354c3.978-0.958,7.049,0.102,8.812,2.52c1.763,2.266,1.612,5.792-0.654,8.609
			c-1.36,1.763-3.023,3.023-4.886,3.829L31.985,272.239z M31.431,270.881c0.354-0.151,0.403-0.151,0.655-0.303
			c3.023-1.509,5.086-4.38,5.237-6.798c0.051-1.26-0.251-2.317-0.906-3.174c-1.057-1.611-3.072-2.517-5.541-2.314
			c-0.603,0.049-0.905,0.503-0.905,1.108c0.251,2.969,0.354,6.495,0.303,10.573c0,0.757,0.151,1.06,0.403,1.06
			C31.079,271.032,31.431,270.881,31.431,270.881z"/>
		<path fill="#FFFFFF" d="M47.502,277.981c-0.403,0-0.706-0.303-0.706-0.704c0-0.405,0.303-0.708,0.706-0.708l0.754-0.049h0.957
			c1.863,0.2,2.618,1.209,2.468,4.432c-0.151,3.071-1.16,6.546-3.123,7.606c-2.469,1.357-5.138-0.957-6.397-6.952
			c-1.057-5.286-1.357-13.144-0.4-18.129c0.552-2.971,1.46-4.883,2.669-5.743c1.963-1.207,3.726-0.855,4.983,0.557
			c1.26,1.26,1.663,3.172,1.008,4.986c-0.351,0.854-1.711,0.352-1.308-0.605c0.451-1.157,0.1-2.52-0.757-3.375
			c-1.863-2.065-4.178-0.757-5.187,4.432c-0.857,4.986-0.654,12.338,0.403,17.578c0.555,2.717,1.26,4.48,2.066,5.235
			c1.763,1.662,2.92,0.856,3.878-1.712c0.805-2.417,0.905-5.691,0.451-6.498c-0.251-0.4-1.057-0.4-1.66-0.352H47.502z"/>
		<path fill="#FFFFFF" d="M53.702,287.953c0.1-0.805,0.301-2.92,0.552-6.397c0.957-12.237,1.06-14.3,2.017-18.732
			c0.552-2.671,1.206-4.583,2.215-5.137c2.065-1.058,3.323,0.253,3.928,2.317c0.352,1.008,0.503,2.166,0.654,3.523
			c0.049,0.655,0.1,1.008,0.1,1.06c1.109,7.956,1.663,15.813,1.663,23.567c0,0.406-0.303,0.706-0.706,0.706s-0.706-0.3-0.706-0.706
			c0-4.834-0.201-9.718-0.655-14.655c-0.048-0.603-0.403-0.957-1.005-0.957c-1.46-0.152-2.923-0.2-4.332-0.25
			c-0.605-0.053-1.008,0.301-1.058,0.903c-0.1,1.514-0.354,4.332-0.654,8.463c-0.251,3.472-0.455,5.641-0.606,6.495
			c-0.051,0.406-0.402,0.654-0.805,0.605C53.902,288.708,53.65,288.354,53.702,287.953z M57.628,270.832
			c1.26,0.049,2.469,0.098,3.729,0.2c0.754,0.049,1.106,0.1,1.057-1.006c-0.103-1.762-0.402-3.477-0.805-6.397
			c-0.151-1.209-0.303-2.317-0.555-3.174c-0.354-1.206-0.754-1.709-1.309-1.66c-0.454,0.049-0.706,0.251-0.908,0.654
			c-0.149,0.151-0.251,0.403-0.352,0.703c-0.303,0.708-0.555,1.714-0.806,2.974c-0.352,1.711-0.857,3.926-1.008,6.646
			C56.622,270.729,56.974,270.832,57.628,270.832z"/>
		<path fill="#FFFFFF" d="M70.476,261.212c0.352,0.905,0.552,1.611,0.704,2.163c0.151,0.605,2.871,12.592,4.282,16.824l0.049,0.097
			c0.251,0.908,1.108,2.872,1.108,2.066v-2.214c0-1.311-0.051-3.578-0.151-6.849c-0.2-6.446-0.151-10.878,0.454-15.31
			c0.049-0.403,0.403-0.655,0.806-0.605c0.403,0.051,0.655,0.405,0.604,0.806c-0.604,4.283-0.604,8.663-0.403,15.061
			c0.051,3.223,0.1,5.538,0.1,6.898v3.977c0,0.908-0.049,1.612-0.1,2.114c-0.049,0.354-0.101,0.606-0.151,0.806
			c-0.049,0.151-0.101,0.254-0.151,0.354c-0.201,0.251-0.452,0.403-0.755,0.354c-0.151,0-0.303-0.054-0.454-0.151
			c-0.049-0.054-0.049-0.103-0.1-0.151c-0.049-0.052-0.049-0.052-0.049-0.103l-0.103-0.251c-0.049-0.149-0.151-0.3-0.251-0.554
			l-0.554-1.863l-1.309-3.978c-0.706-2.166-1.46-4.986-2.266-8.463c-1.158-4.883-1.814-7.704-2.015-8.458
			c-0.051-0.254-0.251-0.908-0.354-1.157c-0.049-0.203-0.2,2.266-0.2,2.266c-0.1,1.709-0.151,2.818-0.151,3.375
			c0,1.308-0.049,3.472-0.151,6.495c-0.2,6.043-0.303,7.755,0.151,12.995c0.051,0.4-0.2,0.751-0.603,0.806
			c-0.403,0.048-0.757-0.206-0.806-0.606c-0.251-1.714-0.354-3.726-0.354-6.045c0-2.266,0.051-4.834,0.203-7.604
			c0.1-2.769,0.152-4.784,0.152-6.041c0-0.757,0.049-1.915,0.1-3.426c0.101-1.511,0.151-2.62,0.151-3.374
			c-0.202-3.223-0.151-3.675,0.252-3.929c0.2-0.101,0.452-0.101,0.706-0.049c0.403,0.151,0.654,0.503,0.806,1.006L70.476,261.212z"
			/>
		<path fill="#FFFFFF" d="M83.925,258.038c0.152,3.726,0.101,9.366-0.2,16.872c-0.051,1.66-0.051,3.877,0.1,6.646
			c0.151,3.477,0.252,5.744,0.252,6.749c0,0.403-0.304,0.706-0.706,0.706c-0.403,0-0.706-0.303-0.706-0.706
			c0-1.157-0.1-3.374-0.251-6.698c-0.151-3.071-0.2-5.34-0.1-6.8c0.303-6.846,0.352-12.387,0.2-16.667
			c-0.048-0.405,0.254-0.757,0.657-0.806C83.574,257.334,83.925,257.637,83.925,258.038z"/>
		<path fill="#FFFFFF" d="M96.72,264.083c0-2.319-0.405-3.979-1.16-4.937c-1.158-1.46-3.223-0.957-4.986,1.714
			c-0.855,1.357-1.409,3.02-1.661,5.035c-0.757,7.203-1.16,14.958,0.2,18.332c0.958,2.215,2.469,3.172,3.777,2.969
			c1.309-0.151,2.468-1.509,2.82-3.877c0.051-0.4,0.403-0.654,0.806-0.605c0.403,0.054,0.655,0.405,0.604,0.806
			c-0.401,2.871-2.013,4.889-4.078,5.137c-2.065,0.354-4.08-1.157-5.238-3.926c-1.56-3.677-1.108-11.583-0.303-19.035
			c0.454-4.383,2.821-7.907,5.489-8.664c2.972-0.854,5.138,1.812,5.138,7.052c0,0.401-0.303,0.704-0.706,0.704
			S96.72,264.484,96.72,264.083z"/>
		<path fill="#FFFFFF" d="M117.477,257.434c0.251,0,0.554,0,0.957-0.051c1.46-0.049,6.598-0.151,7.855-0.151
			c0.405,0,0.706,0.303,0.706,0.708c0,0.401-0.3,0.704-0.706,0.704c-1.207,0-6.344,0.151-7.804,0.2c-0.354,0-0.605,0-0.805,0.051
			c0,0.051,0,0.1,0,0.203c0,0.151-0.052,0.352-0.103,0.806c-0.049,0.906-0.1,1.963-0.1,2.92c-0.051,0.552-0.051,1.006-0.051,1.358
			c0,0.151-0.049,0.253-0.049,0.354c0,0.252-0.051,0.505-0.1,0.958c-0.052,1.36-0.151,2.771-0.203,4.329
			c0,0.708,0.403,1.011,1.057,0.908c0.454,0,0.958-0.049,1.563-0.049c0.403,0,0.703,0.3,0.703,0.703s-0.3,0.706-0.703,0.706
			c-0.706,0-1.311,0.051-1.763,0.101c-0.605,0.102-0.857,0.554-0.857,1.108c0,0.854,0,1.763,0.052,2.769
			c0.2,6.949,0.3,10.729,0.3,11.281c0,0.406-0.3,0.706-0.703,0.706c-0.403,0-0.706-0.3-0.706-0.706c0-0.552-0.1-4.28-0.352-11.229
			c-0.151-4.583-0.051-8.36,0.251-11.332c0-0.151,0-0.352,0.048-0.704c0-0.354,0-0.806,0.052-1.362c0-1.106,0.051-2.569,0.203-3.575
			c0.049-0.303,0.049-0.552,0.1-0.754c0-0.051,0-0.1,0-0.151c0-0.1,0.049-0.403,0.403-0.655c0.1-0.051,0.2-0.1,0.251-0.1
			c0.051,0,0.051,0,0.1-0.051c0.052,0,0.052,0,0.1,0H117.477z"/>
		<path fill="#FFFFFF" d="M129.014,287.953c0.1-0.805,0.3-2.92,0.552-6.397c0.958-12.237,1.06-14.3,2.017-18.732
			c0.552-2.671,1.206-4.583,2.214-5.137c2.066-1.058,3.323,0.253,3.929,2.317c0.352,1.008,0.503,2.166,0.655,3.523
			c0.049,0.655,0.1,1.008,0.1,1.06c1.108,7.956,1.663,15.813,1.663,23.567c0,0.406-0.303,0.706-0.706,0.706
			c-0.403,0-0.706-0.3-0.706-0.706c0-4.834-0.2-9.718-0.654-14.655c-0.049-0.603-0.403-0.957-1.006-0.957
			c-1.46-0.152-2.923-0.2-4.331-0.25c-0.605-0.053-1.009,0.301-1.058,0.903c-0.1,1.514-0.354,4.332-0.654,8.463
			c-0.252,3.472-0.454,5.641-0.605,6.495c-0.051,0.406-0.403,0.654-0.806,0.605C129.214,288.708,128.962,288.354,129.014,287.953z
			 M132.94,270.832c1.26,0.049,2.469,0.098,3.729,0.2c0.754,0.049,1.106,0.1,1.057-1.006c-0.102-1.762-0.403-3.477-0.806-6.397
			c-0.151-1.209-0.303-2.317-0.554-3.174c-0.354-1.206-0.754-1.709-1.309-1.66c-0.454,0.049-0.706,0.251-0.908,0.654
			c-0.148,0.151-0.251,0.403-0.352,0.703c-0.303,0.708-0.554,1.714-0.805,2.974c-0.352,1.711-0.857,3.926-1.008,6.646
			C131.934,270.729,132.286,270.832,132.94,270.832z"/>
		<path fill="#FFFFFF" d="M147.197,272.239c-0.151,0.053,0,0.354,0,0.354c1.611,2.668,2.518,4.986,4.483,9.872
			c0.654,1.763,1.308,3.172,1.862,4.18c0.454,0.854-0.857,1.56-1.309,0.703c-0.554-1.057-1.208-2.517-1.914-4.332
			c-2.317-5.992-3.778-9.166-4.532-9.918c-0.052-0.054-0.103-0.054-0.151-0.151c-0.052,0.352-0.203,1.006-0.203,1.56
			c-0.048,0.906-0.048,1.761-0.1,2.62c0,0.401-0.051,1.207-0.1,2.417c-0.151,2.466-0.151,3.169-0.151,5.084
			c0,0.957,0.051,1.865,0.1,2.62c0.052,0.403-0.251,0.754-0.654,0.754c-0.402,0.051-0.754-0.249-0.754-0.654
			c-0.102-0.754-0.151-1.66-0.151-2.668c0-1.966,0-2.771,0.151-5.237c0.049-1.209,0.1-2.015,0.149-2.418
			c0.303-6.9,0.203-12.892-0.2-17.927c-0.051-0.454-0.303-0.806-0.2-1.26c0.049-0.103,0.049-0.151,0.1-0.252
			c0.049-0.151,0.201-0.303,0.403-0.354c3.978-0.958,7.049,0.102,8.812,2.52c1.763,2.266,1.612,5.792-0.654,8.609
			c-1.36,1.763-3.021,3.023-4.886,3.829L147.197,272.239z M146.643,270.881c0.354-0.151,0.403-0.151,0.655-0.303
			c3.023-1.509,5.088-4.38,5.237-6.798c0.051-1.26-0.251-2.317-0.906-3.174c-1.057-1.611-3.072-2.517-5.541-2.314
			c-0.603,0.049-0.906,0.503-0.906,1.108c0.251,2.969,0.352,6.495,0.303,10.573c0,0.757,0.151,1.06,0.402,1.06
			C146.291,271.032,146.643,270.881,146.643,270.881z"/>
		<path fill="#FFFFFF" d="M156.771,258.895c0-0.149,0-0.251,0.051-0.3c0-0.054,0-0.103,0-0.151c0.049-0.203,0.201-0.354,0.403-0.454
			c0.451-0.254,0.905-0.103,1.308,0.352c0.151,0.2,0.352,0.503,0.403,0.554c1.058,1.257,2.015,2.971,3.275,5.438
			c0.806,1.611,1.105,2.319,1.508,3.125c0.655,1.409,0.806,1.558,1.309-0.054l0.405-1.357c1.158-3.677,2.063-6.094,2.669-7.301
			l0.049-0.103c0.051-0.2,0.1-0.303,0.1-0.352c0.052-0.254,0.151-0.405,0.254-0.503c0.552-0.605,1.257-0.354,1.509,0.201
			c0.052,0.1,0.052,0.2,0.103,0.352c0.048,0.254,0.1,0.554,0.151,0.908c0.148,1.206,0.251,4.029,0.251,6.695v7.554
			c0,1.46,0,5.49,0.148,7.506l0.151,3.525c0.051,1.358,0.151,2.618,0.254,3.824c0.048,0.405-0.254,0.757-0.657,0.757
			c-0.403,0.049-0.754-0.251-0.754-0.654c-0.251-2.369-0.403-5.337-0.454-7.354c-0.049-1.006-0.049-2.363-0.049-4.028
			c-0.051-1.661-0.051-2.818-0.051-3.523c-0.052-0.706-0.052-2.015,0-3.978c0-1.963,0-3.174,0-3.628c0-1.309-0.052-2.718-0.101-4.18
			c0-0.249-0.051-0.452-0.051-0.655c0-0.2-0.755,1.16-1.058,2.117c-0.303,0.955-0.654,2.015-1.057,3.274l-1.109,3.525
			c-0.151,0.503-0.3,0.855-0.352,1.106c-0.051,0.151-0.1,0.301-0.1,0.354l-0.051,0.151c-0.051,0.049-0.051,0.049-0.1,0.098
			c-0.203,0.253-0.706,0.503-1.057,0.151c-0.052-0.049-0.103-0.101-0.151-0.151c-0.052-0.049-0.052-0.049-0.1-0.098l-0.051-0.151
			c-0.052-0.053-0.052-0.203-0.1-0.354l-0.454-1.16c-0.454-1.258-0.857-2.115-1.157-2.617l-1.16-2.266l-1.409-2.72
			c-0.203-0.352-0.403-0.755-0.605-1.058c-0.555-0.857-0.604,0.303-0.604,0.303c0.049,1.058,0.2,3.878,0.2,4.532
			c0.051,1.863,0.051,5.491,0,10.98c-0.048,4.781-0.048,8.358,0.051,10.827c0.049,0.4-0.251,0.754-0.654,0.754
			c-0.403,0.051-0.757-0.251-0.757-0.654c-0.151-2.468-0.151-6.146-0.048-10.98c0.1-4.883,0.1-8.51,0-10.827
			c-0.051-0.352-0.051-1.108-0.103-2.164c-0.1-2.168-0.2-3.525-0.2-4.532V258.895z"/>
		<path fill="#FFFFFF" d="M198.126,276.473c0.251-0.054,2.617-0.152,3.171-0.152c1.309,0.049,1.612,0.352,1.612,0.752
			c0,0.405-0.303,0.708-0.706,0.708h-0.252c-0.654,0-1.006,0.049-1.006,0.151c0.251,2.769,0,4.932-0.805,6.495
			c-1.009,1.863-2.771,3.423-4.635,3.98c-2.166,0.603-4.18-0.103-5.538-2.266c-1.663-2.771-1.865-8.36-0.303-11.183
			c0.352-0.552,0.704-1.055,1.158-1.56c0.403-0.452,0.403-0.857,0-1.309c-0.251-0.251-0.403-0.554-0.604-0.857
			c-1.26-2.417-0.706-6.446,0.755-9.769s3.323-4.735,5.337-4.129c1.612,0.552,2.872,2.367,3.275,4.28
			c0.151,0.955,0.1,1.863-0.252,2.669c-0.454,0.855-1.714,0.201-1.309-0.605c0.452-0.854,0.1-2.569-0.757-3.826
			c-0.855-1.209-1.915-1.561-2.921-0.806c-1.459,1.16-2.971,4.535-3.323,7.606c-0.151,1.66,0,2.92,0.503,3.877
			c0.251,0.552,0.655,0.957,1.109,1.157c0.451,0.201,0.754,0.201,1.208,0.251c0.048,0,0.151,0,0.2,0
			c0.151,0.051,0.303,0.051,0.403,0.101c0.051,0,0.1,0,0.151,0.051c0.1,0.051,0.202,0.149,0.251,0.203
			c0.203,0.301,0.203,0.604,0,0.903c-0.1,0.103-0.251,0.203-0.402,0.254h-0.252c-0.151,0-0.351,0-0.502,0
			c-0.303,0-0.654,0-1.008,0.251c-0.706,0.452-1.36,1.208-1.712,1.966c-1.36,2.363-1.158,7.452,0.2,9.668
			c0.958,1.558,2.269,2.115,3.929,1.661c1.46-0.403,2.923-1.661,3.729-3.272c0.654-1.311,0.906-3.223,0.703-5.694l-0.049-0.098
			c0-0.054-0.354-0.103-1.008-0.054c-0.706,0.103-1.36,0.205-1.963,0.354c-0.403,0.051-0.757-0.1-0.857-0.503
			c-0.1-0.403,0.051-0.755,0.454-0.906c0.352-0.103,0.704-0.203,1.057-0.254L198.126,276.473z"/>
		<path fill="#FFFFFF" d="M223.62,272.39c-0.554,0.203-0.806,0.606-0.806,1.211c-0.2,8.409-0.303,13.092-0.303,14.001
			c0,0.4-0.303,0.703-0.704,0.703c-0.405,0-0.706-0.303-0.706-0.703c0-2.32,0.049-5.543,0.152-9.621
			c0.149-7.806,0.402-10.675,0.048-17.978c-0.048-1.058-0.503-1.109-1.157-0.857c-0.052,0-0.1,0.051-0.151,0.051
			c-0.857,0.403-1.46-0.906-0.604-1.311c2.618-1.158,5.79-0.904,8.258,0.505c2.769,1.409,4.332,4.028,3.726,7.252
			c-0.352,1.965-1.509,3.577-3.475,4.783c-0.303,0.2-0.603,0.352-0.905,0.503c-0.555,0.303-0.606,0.708-0.203,1.26
			c1.008,1.411,1.611,3.477,1.863,6.194c0.051,0.403,0.102,1.106,0.151,2.117c0.102,2.012,0.151,2.566,0.402,3.926
			c0.151,0.655,0.303,1.26,0.555,1.714c0.103,0.149,0.202,0.3,0.303,0.401c0.051,0.051,0.051,0.102,0.1,0.15
			c0.251-0.048,0.454-0.15,0.654-0.351c0.051-0.051,0.103-0.103,0.151-0.151c0.605-0.757,1.711,0.151,1.109,0.906
			c-1.158,1.409-2.669,1.611-3.626-0.354c-0.554-1.055-0.857-2.818-0.957-3.877c-0.048-0.552-0.1-1.309-0.151-2.363
			c-0.048-1.011-0.1-1.665-0.151-2.017c-0.2-2.817-0.754-4.732-2.063-5.943c-0.403-0.401-0.806-0.401-1.36-0.2L223.62,272.39z
			 M229.966,265.341c0.452-2.469-0.757-4.48-2.971-5.691c-1.058-0.604-2.115-0.904-3.224-1.006
			c-0.706-0.049-1.057,0.352-1.008,1.006c0.103,2.92,0.151,6.348,0.051,10.225c0,0.752,0.503,1.106,1.208,0.806
			C227.346,269.42,229.412,268.161,229.966,265.341z"/>
		<path fill="#FFFFFF" d="M237.272,258.038c-0.052,0.051-0.052,0.051-0.052,0.103c0,0.049-0.1,0.251-0.148,0.703
			c0,0.103-0.051,0.203-0.051,0.354c-0.2,1.561-0.051,3.626,0.151,6.295c0.151,2.317,0.251,2.166,0.151,4.231
			c-0.051,1.006,0.303,1.109,1.006,1.109c0.605,0,1.16,0,1.563-0.054c0.403-0.049,0.754,0.254,0.806,0.655
			c0,0.405-0.303,0.757-0.706,0.757c-0.503,0.049-1.057,0.049-1.763,0.049c-0.654,0-1.008,0-1.057,1.011
			c-0.251,4.932-0.303,8.863-0.1,11.632c0.049,0.855,0.148,1.509,0.251,1.964c0,0.102,0.048,0.2,0.048,0.251
			c0.052,0.052,0.103-0.3,0.103-0.452c0,0.503,0.2,0.854,0.754,0.958c1.109,0.2,2.569,0,4.029-0.103
			c0.755-0.048,1.309-0.048,1.663-0.048c0.403,0,0.703,0.303,0.703,0.703c0,0.406-0.3,0.706-0.703,0.706
			c-0.655,0-2.771,0.203-3.426,0.251c-1.663,0.049-2.869-0.1-3.674-0.454c-0.555-0.2-0.757-0.806-0.908-1.46
			c-0.151-0.552-0.252-1.26-0.303-2.214c-0.201-3.074-0.101-7.455,0.051-10.778c0.051-1.662,0.151-3.02,0.203-4.178
			c0.1-2.216,0.049-1.965-0.151-4.434c-0.203-2.669-0.354-4.883-0.151-6.546c0.151-1.008,0.352-1.863,0.958-2.266
			c0.352-0.203,0.957-0.251,1.611-0.251c0.352,0,1.157,0,2.417,0.049c2.467,0.051,3.778,0.103,3.978,0.103
			c0.403-0.051,0.755,0.25,0.806,0.654c0,0.201-0.051,0.401-0.2,0.503c-0.303,0.352-0.657,0.251-1.108,0.251
			c-0.655,0-1.863,0-3.526-0.051c-1.257-0.049-2.014-0.049-2.317-0.049c-0.352,0-0.603,0-0.754,0.049H237.272z"/>
		<path fill="#FFFFFF" d="M257.521,264.787c0.855-3.978-0.757-5.943-3.174-5.992c-2.466,0-4.986,1.915-5.389,5.086
			c-0.2,1.612,0.1,2.972,1.058,4.329c0.957,1.362,1.511,1.915,3.326,3.577c1.862,1.763,2.366,2.215,3.826,3.978
			c1.46,1.814,2.217,3.628,2.417,5.843c0.554,4.835-2.064,7.757-5.49,7.503c-3.425-0.352-6.143-3.726-6.143-8.963
			c0-0.403,0.3-0.706,0.706-0.706c0.4,0,0.703,0.303,0.703,0.706c0,4.632,2.317,7.303,4.887,7.503c2.365,0.2,4.331-1.863,3.928-5.84
			c-0.203-1.965-0.806-3.577-2.117-5.189c-1.309-1.56-1.863-2.115-3.726-3.777c-1.763-1.612-2.367-2.217-3.526-3.829
			c-1.157-1.611-1.508-3.32-1.257-5.337c0.452-3.826,3.626-6.344,6.798-6.344c3.426,0.049,5.641,2.969,4.583,7.755
			c-0.051,0.403-0.454,0.605-0.857,0.554S257.47,265.191,257.521,264.787z"/>
		<path fill="#FFFFFF" d="M272.481,267.003c0.403,8.912,0.052,13.498-0.805,16.77c-0.555,2.163-1.409,3.575-2.518,4.28
			c-1.46,0.957-2.872,0.554-3.929-0.654c-0.755-0.957-1.46-2.468-2.065-4.534c-1.258-4.429-3.324-16.618-0.049-23.064
			c0.754-1.358,2.317-2.667,3.777-3.021c2.467-0.554,4.029,0.955,4.835,3.324C272.027,260.958,272.381,262.472,272.481,267.003z
			 M271.072,264.635c-0.103-1.561-0.303-2.921-0.706-4.029c-0.605-1.86-1.612-2.769-3.174-2.417
			c-1.006,0.203-2.214,1.26-2.769,2.317c-3.072,5.892-1.108,17.524,0.151,21.958c0.554,1.861,1.108,3.223,1.763,3.978
			s1.208,0.857,2.014,0.403c1.612-1.006,2.518-4.684,2.769-9.567C271.272,274.758,271.221,270.93,271.072,264.635z"/>
		<path fill="#FFFFFF" d="M279.687,272.239c-0.151,0.053,0,0.354,0,0.354c1.612,2.668,2.518,4.986,4.483,9.872
			c0.654,1.763,1.309,3.172,1.863,4.18c0.452,0.854-0.857,1.56-1.309,0.703c-0.554-1.057-1.208-2.517-1.914-4.332
			c-2.317-5.992-3.777-9.166-4.532-9.918c-0.051-0.054-0.102-0.054-0.151-0.151c-0.051,0.352-0.202,1.006-0.202,1.56
			c-0.049,0.906-0.049,1.761-0.101,2.62c0,0.401-0.051,1.207-0.1,2.417c-0.152,2.466-0.152,3.169-0.152,5.084
			c0,0.957,0.049,1.865,0.1,2.62c0.052,0.403-0.251,0.754-0.654,0.754c-0.403,0.051-0.754-0.249-0.754-0.654
			c-0.103-0.754-0.151-1.66-0.151-2.668c0-1.966,0-2.771,0.151-5.237c0.049-1.209,0.1-2.015,0.151-2.418
			c0.3-6.9,0.2-12.892-0.203-17.927c-0.052-0.454-0.303-0.806-0.203-1.26c0.052-0.103,0.052-0.151,0.103-0.252
			c0.048-0.151,0.2-0.303,0.403-0.354c3.977-0.958,7.049,0.102,8.812,2.52c1.763,2.266,1.611,5.792-0.655,8.609
			c-1.36,1.763-3.022,3.023-4.885,3.829L279.687,272.239z M279.132,270.881c0.354-0.151,0.403-0.151,0.655-0.303
			c3.022-1.509,5.086-4.38,5.237-6.798c0.051-1.26-0.252-2.317-0.906-3.174c-1.057-1.611-3.071-2.517-5.54-2.314
			c-0.604,0.049-0.906,0.503-0.906,1.108c0.252,2.969,0.354,6.495,0.303,10.573c0,0.757,0.151,1.06,0.403,1.06
			C278.781,271.032,279.132,270.881,279.132,270.881z"/>
		<path fill="#FFFFFF" d="M293.038,259.347c0-0.098-0.352-0.201-1.009-0.201c-1.157-0.049-2.166,0-3.02,0.051
			c-0.403,0.051-0.757-0.251-0.757-0.657c-0.048-0.4,0.254-0.752,0.657-0.752c1.309-0.151,3.171-0.151,5.589-0.053
			c2.568,0.053,4.38,0.103,5.44,0.053c0.401-0.053,0.755,0.25,0.806,0.655c0,0.4-0.303,0.754-0.706,0.754
			c-1.16,0.051-3.022,0.051-5.591-0.051c0,0,0.051,0.201,0.102,0.706c0.251,1.257,0.3,2.517,0.201,4.382
			c-0.052,1.055-0.101,1.763-0.101,2.063c0,1.311-0.051,3.425-0.151,6.395c-0.2,5.943-0.251,10.475,0.303,14.103
			c0.049,0.4-0.202,0.752-0.605,0.806c-0.403,0.048-0.754-0.203-0.806-0.605c-0.604-3.678-0.554-8.361-0.303-14.404
			c0.103-2.972,0.151-5.086,0.151-6.295c0-0.403,0-1.106,0.051-2.166c0.051-2.065,0.051-3.271-0.203-4.532L293.038,259.347z"/>
	</g>
	<path fill="#FFFFFF" d="M35.262,21.072c1.746-7.064-3.691-18.208-12.04-16.323c-4.471,0.94-7.965,3.453-10.487,7.377
		c-6.216,9.259-8.937,26.211-5.829,50.223c1.748,13.181,4.276,22.439,7.965,27.624c6.019,8.944,13.398,3.921,16.699,0.156
		c1.555-1.726,2.527-3.767,2.916-6.124c0.192-1.253,1.553-2.039,3.105-1.883c1.555,0.157,2.525,1.26,2.332,2.51
		c-0.972,5.809-5.438,11.305-11.459,13.654c-6.41,2.671-13.983,0.63-18.645-6.119C2.05,80.708-1.637,48.537,0.689,32.37
		c1.36-9.886,3.695-17.26,6.994-22.441c3.108-4.551,8.543-8.316,13.984-9.574c6.407-1.253,12.623,0.784,15.924,6.59
		c3.301,5.494,4.273,10.517,3.106,15.068c-0.195,1.255-1.746,1.885-3.301,1.726C35.843,23.582,35.066,22.327,35.262,21.072z"/>
	<path fill="#FFFFFF" d="M96.82,33.313c0.583,19.304-1.165,40.181-2.913,50.223c-0.97,5.81-2.525,10.202-4.853,12.241
		c-3.301,2.671-9.517,4.554-14.374,4.554c-21.167,0-24.276-18.677-25.831-42.061C47.297,38.65,48.271,17.62,58.563,8.202
		c7.767-7.064,27.19-8.788,34.374,6.277c2.137,4.552,3.494,10.517,3.882,18.047V33.313z M91.189,30.646
		C90.218,18.719,86.528,7.575,74.681,7.418c-5.245,0-9.127,1.255-11.848,3.609C54.095,19.19,52.93,38.65,54.29,57.955
		c1.749,22.753,4.661,37.983,20.391,37.983c3.304,0,8.351-1.416,10.099-3.296c0.583-0.474,1.36-1.573,1.946-3.14
		c0.579-1.729,0.964-3.926,1.548-6.593c0.974-4.869,1.748-11.144,2.332-18.674c0.972-13.029,1.167-24.017,0.584-32.963V30.646z"/>
	<path fill="#FFFFFF" d="M152.557,33.313c0.581,19.304-1.165,40.181-2.913,50.223c-0.972,5.81-2.524,10.202-4.859,12.241
		c-3.296,2.671-9.513,4.554-14.367,4.554c-21.172,0-24.276-18.677-25.833-42.061c-1.551-19.619-0.581-40.649,9.715-50.067
		c7.768-7.064,27.188-8.788,34.372,6.277c2.137,4.552,3.497,10.517,3.885,18.047V33.313z M146.924,30.646
		c-0.972-11.928-4.661-23.072-16.506-23.229c-5.245,0-9.127,1.255-11.85,3.609c-8.736,8.163-9.901,27.624-8.543,46.928
		c1.748,22.753,4.661,37.983,20.393,37.983c3.301,0,8.348-1.416,10.099-3.296c0.581-0.474,1.358-1.573,1.938-3.14
		c0.586-1.729,0.972-3.926,1.559-6.593c0.966-4.869,1.745-11.144,2.329-18.674c0.969-13.029,1.162-24.017,0.581-32.963V30.646z"/>
	<path fill="#FFFFFF" d="M169.448,86.676c0,3.297,0,5.965,0.193,7.846v2.039c0.39,0.161,0.588,0.161,0.974,0.161
		c0.583,0.157,1.36,0.157,3.108,0.313c1.357,0,3.105,0,5.047,0c0.974,0.156,5.245,0.156,12.816,0.156c1.558,0,2.72,0.94,2.72,2.2
		c0,1.25-1.163,2.193-2.72,2.193h-12.816c-3.301,0-6.021-0.157-7.96-0.313c-2.332-0.156-4.857-0.313-5.829-1.57
		c-0.193-0.154-0.386-0.467-0.581-0.94c-0.195-0.156-0.195-0.313-0.195-0.474v0.947c0-1.416-0.193-2.355-0.193-3.77
		c0-0.313,0-0.63,0-0.942c0-1.88,0-4.549-0.195-7.846c0-1.57,0-3.455,0.195-5.65c0-2.2,0-3.77,0-4.71v-2.667
		c-0.195-5.181,0-12.084,0.193-20.877c0.391-17.575,0.391-31.7-1.748-44.412c-0.193-1.255,0.779-2.355,2.332-2.51
		c1.553-0.161,2.916,0.625,3.108,1.88c2.333,13.026,2.333,27.623,1.744,45.198c-0.193,8.949-0.384,15.852-0.193,20.72V86.676z"/>
	<path fill="#FFFFFF" d="M306.063,55.251c0.612-0.073,1.238-0.149,1.857-0.25c0.75-0.325,1.397-0.727,1.727-1.281
		c0.645-1.087,0.266-2.281-0.508-3.263c-0.562-0.32-1.233-0.562-1.956-0.745c-1.824,0.068-4.019,0.076-6.595,0.076h-14.709
		c-5.497,0.19-13.29,0-23.394-0.193c-19.842-0.588-34.897-0.098-51.013,1.045c-1.428,0.1-2.334,1.782-2.156,3.335
		c0.176,1.553,2.623,2.38,4.039,2.188c14.354-2.139,29.112-1.524,48.954-1.133c9.928,0.192,17.722,0.388,23.57,0.192h8.329
		c2.478,0.196,4.608,0.196,6.38,0.196C302.675,55.31,304.458,55.271,306.063,55.251z"/>
	<path fill="#FFFFFF" d="M249.837,28.078c-18.682-1.016-25.838-2.784-39.697-0.779c-1.333,0.166-1.937,1.34-1.766,2.676
		c0.166,1.333,1.58,2.124,2.913,1.958c13.522-1.836,25.396,0.552,44.095,0.889c0,0,27.719,2.654,25.843-10.995
		c-1.875-13.649-25.14-6.407-25.14-6.407s-1.545,0.964-1.545,1.794c0,0.835,0.432,4.61,2.571,3.934
		c2.134-0.676,16.975-6.51,18.43,1.304C277,30.266,258.378,28.542,249.837,28.078z"/>
	<path fill="#FFFFFF" d="M264.749,77.674c-18.704,0.432-39.8,1.799-53.659-0.206c-1.334-0.166-1.937-1.34-1.766-2.676
		c0.167-1.333,1.367-2.952,2.701-2.786c13.522,1.836,36.77,1.494,56.765,0.222c0,0,29.12-2.68,27.245,10.969
		c-1.875,13.649-25.14,6.407-25.14,6.407s-1.545-0.962-1.545-1.797c0-0.83,0.432-4.608,2.571-3.931
		c2.134,0.676,16.975,6.509,18.43-1.304C291.81,74.758,272.479,77.495,264.749,77.674z"/>
	<g>
		<path fill="#FFFFFF" d="M82.956,125.072c0.193-1.25,1.939-1.88,3.494-1.724c1.358,0.161,2.137,1.57,1.939,2.671l-3.882,14.123
			c-2.332,9.574-5.049,22.288-6.603,29.347l-3.108,15.695l-2.717,14.281c-0.582,2.511-1.553,6.593-2.913,12.087
			c-0.776,2.669-1.36,4.708-1.938,6.275c-0.198,0.942-0.588,1.729-0.782,2.202c0,0.154-0.193,0.311-0.193,0.467
			c0,0.161-0.388,0.471-0.581,0.944c-0.583,0.469-1.36,0.782-2.334,0.782c-0.581,0-1.165-0.156-1.743-0.469l-0.388-0.313
			c-0.195-0.161-0.394-0.317-0.394-0.473v-0.154l-0.192-0.156l-0.195-0.473l-0.97-1.883l-2.72-6.28
			c-2.91-6.593-4.659-11.452-5.631-14.591l-1.941-7.223c-3.108-11.615-2.524-11.141-4.661,0l-1.553,7.851
			c0,0.313-0.196,1.882-0.582,4.705c-0.781,4.71-1.362,8.79-2.334,12.086c-0.386,1.255-0.579,2.195-1.165,3.608
			c-0.195,0.156-0.195,0.474-0.388,0.63c-0.584,0.786-1.746,1.88-3.497,1.88c-0.774,0-1.553-0.154-2.137-0.627
			c-0.193-0.156-0.193-0.467-0.391-0.628c-0.192-0.156-0.386-0.469-0.578-0.781c-0.193-0.474-0.583-1.257-0.97-2.197l-2.332-6.281
			c-2.137-5.809-3.497-9.728-4.273-11.773c-0.389-1.407-0.776-2.349-1.167-3.606c-0.386-1.097-0.774-2.2-1.165-3.453l-1.553-4.866
			c-0.391-1.414-0.777-3.14-1.357-5.333l-1.165-5.025c-0.196-1.099-0.584-2.983-1.167-5.65c-0.583-2.666-0.776-4.239-0.972-4.866
			c-0.193-0.784-0.969-5.652-1.556-8.475c-0.19-1.411-0.388-2.354-0.581-3.765c-0.583-1.885-1.355-5.494-2.522-10.514
			c-1.749-7.691-2.72-13.498-2.72-17.581c0-1.252,1.165-2.197,2.72-2.197c1.553,0,2.715,0.945,2.715,2.197
			c0,3.927,0.974,9.416,2.72,16.481c1.748,7.218,2.72,11.455,2.913,12.868c0.195,0.629,0.389,2.197,0.972,4.549l0.779,4.71
			l0.774,4.395c0.779,4.395,0.972,5.337,1.943,9.103c0.389,1.88,0.779,3.453,1.165,4.71l1.165,4.237
			c0.386,1.726,0.779,3.14,1.36,4.551l1.553,4.396c0,0.156,1.168,3.453,3.497,10.045c1.167,2.195,2.91,3.608,2.91,3.608
			c0.389-1.882,0.782-4.239,1.17-7.066c0.193-1.25,0.389-2.193,0.389-2.823c0.192-1.414,0.385-2.354,0.773-3.765l4.856-24.642
			c0.196-1.57,0.196-2.51-0.193-4.083c-4.08-15.222-6.8-28.563-8.158-39.548c-0.193-1.097,0.97-2.354,2.525-2.511
			c1.357,0,2.916,0.94,2.916,2.2c0.773,5.963,1.744,12.394,3.298,19.148c2.525,10.668,2.137,11.77,4.662,0.156l4.468-19.934
			c0.193-1.26,1.744-1.883,3.302-1.726c1.551,0.155,2.332,1.413,2.131,2.666c-2.715,11.927-5.823,24.957-8.541,39.392
			c-0.195,1.573-0.195,2.513,0.193,3.927l7.186,25.897c0.774,2.978,2.527,7.535,5.438,13.966l-1.556-3.608
			c1.169,2.666,2.913,4.708,3.304,3.608c2.911-10.67,3.108-11.927,5.633-25.896l3.105-16.008l3.108-13.81
			c1.165-5.65,2.33-10.829,3.492-15.695L82.956,125.072z"/>
		<path fill="#FFFFFF" d="M97.325,217.043c3.882-0.153,7.77-0.153,11.649-0.31c3.301,0,4.08-0.63,4.08-1.573
			c0-4.081-0.583-9.103-0.389-16.481c0.196-3.606,0.196-5.963,0.196-7.059c0-3.606,0-8.792,0.193-15.695
			c0.193-6.749,0.193-11.771,0.193-14.75c0-10.362-0.386-19.309-0.972-26.683c-0.193-1.885,0.196-3.294-4.073-2.984
			c-3.689,0.313-6.798,0.474-9.52,0.787c-1.358,0.156-2.911-0.63-3.106-1.88c-0.193-1.104,0.776-2.356,2.329-2.513
			c6.215-0.784,12.431-0.94,22.726-0.784c5.044,0.154,8.152,0.154,9.515,0.154c1.55,0,2.717,0.94,2.717,2.2
			c0,1.252-1.167,2.192-2.717,2.192c-0.389,0-3.108-0.156-8.351-0.156c-5.633,0-4.081,1.099-3.887,3.296
			c0.583,6.749,0.779,15.542,0.779,26.37c0,2.979,0,8.001-0.195,14.75c-0.193,6.903-0.193,12.089-0.193,15.695
			c0,1.252,0,3.609,0,7.22c-0.195,7.062,0.389,13.18,0.582,15.693c0.195,2.2-0.582,2.2,3.687,2.356c1.946,0,3.89,0,5.829,0.153
			c1.558,0,2.72,1.102,2.72,2.356c-0.195,1.257-1.553,2.197-3.108,2.041c-10.68-0.317-20.779-0.317-30.297,0
			c-1.553,0.156-2.911-0.784-2.911-2.041C94.605,218.145,95.772,217.043,97.325,217.043z"/>
		<path fill="#FFFFFF" d="M160.05,144.693l18.449,28.875c2.916,4.869,5.052,11.459,4.463-0.939c-0.383-7.216-0.383-14.912,0-21.817
			c0.589-9.728,0.589-17.419-0.966-24.168c-0.195-1.255,0.583-2.513,2.136-2.667c1.553-0.156,3.108,0.471,3.301,1.724
			c1.551,7.379,1.746,15.539,1.162,25.428c-0.193,5.023-0.386,8.788-0.386,11.3c0.386,12.082,0.774,21.502,1.36,32.169
			c0.389,8.792,0.972,16.638,1.941,24.014c0.193,1.26-0.969,2.354-2.527,2.354c-1.551,0.156-2.914-0.784-2.914-2.037
			c-0.966-7.379-1.548-15.852-2.134-24.955c-0.193-1.416-0.581-2.512-1.357-3.77l-27.579-43.318l0.583,0.945
			c-1.748-2.828-4.468-6.907-4.468,0.942c0,13.181,0,24.481-0.581,42.532c-0.388,10.824-0.584,19.145-0.584,24.795
			c0,1.258-1.167,2.198-2.717,2.198c-1.555,0-2.72-0.94-2.72-2.198c0-5.65,0.195-13.971,0.581-24.795
			c0.198-10.829,0.391-17.422,0.391-19.463c0.39-17.736,0-32.49-1.358-43.943c-0.195-0.318,0-0.474,0-0.784
			c0.19-0.473-0.195-1.26,1.165-2.512c0.386-0.318,0.972-0.628,1.556-0.628c1.553-0.156,2.91,0.628,3.103,1.88
			c0.584,3.14,2.721,7.223,3.885,9.259c0.581,1.104,1.553,2.671,3.105,5.025L160.05,144.693z"/>
		<path fill="#FFFFFF" d="M242.397,167.924c-2.525,22.439-15.344,46.61-29.134,52.106c-0.581,0.311-0.967,0.311-1.355,0.311
			c-1.17-0.156-1.559,0.473-3.304,0.473c-0.584,0.154-1.36,0-1.941-0.317c-0.582-0.313-0.972-0.784-1.167-1.409
			c-0.972-4.554-1.553-10.362-1.358-17.578c0.193-9.733,0.386-15.385,0.386-17.109c0-0.312-0.192-3.609-0.581-9.728
			c-0.776-12.399-0.97-15.067-0.97-25.584c-0.195-10.201,0.582-17.424,1.941-22.444c0-0.943-0.195-1.727-0.195-1.727
			c0-1.252,1.165-2.195,2.718-2.195C235.208,122.723,245.31,142.652,242.397,167.924z M214.236,127.746
			c-2.329-0.474-4.082,0.466-4.466,2.351c-0.971,4.708-1.36,10.673-1.167,18.992c0,10.202,0,12.712,0.776,25.111
			c0.391,6.28,0.581,9.576,0.581,9.889c0.193,1.252,0,7.061-0.19,17.421c-0.195,5.963,0.19,10.829,0.772,14.594
			c0.195,0,0.195,0,0.393-0.156c11.066-4.551,23.304-26.683,25.828-48.497C239.484,145.162,231.714,130.415,214.236,127.746z"/>
		<path fill="#FFFFFF" d="M258.124,209.667c-0.779-1.412-1.36-2.667-1.553-4.708c-0.193-0.938-0.193-1.724-0.391-2.354
			c-0.193-0.474-0.193-1.414-0.193-2.51v-6.592c0-1.255,1.163-2.195,2.72-2.195c1.55,0,2.717,0.94,2.717,2.195v3.608
			c0,0.161,0,0.784,0.195,1.568c0,0.942,0,1.572,0,1.89c0,0.623,0.193,2.51,0.386,3.296c0.195,0.466,0.195,0.94,0.388,1.563
			c0.195,0.63,0.388,1.104,0.581,1.573c0.195,0.471,0.391,0.94,0.586,1.411c0.193,0.474,0.386,0.942,0.779,1.417
			c2.913,4.236,8.929,5.962,15.727,4.705c6.798-1.097,12.236-4.705,13.596-8.944c0.583-2.042,0.972-3.924,0.972-5.65
			c0-3.452-0.583-6.119-2.332-9.103c-1.749-2.984-3.497-4.869-6.605-7.535c-1.743-1.414-3.301-2.51-4.658-3.453l-4.857-3.296
			c-0.581-0.313-1.162-0.784-2.134-1.568c-6.021-3.765-7.77-4.868-12.429-9.105c-4.856-4.236-6.409-7.059-7.769-11.927
			c-0.582-2.354-0.777-4.864-0.195-7.531c2.525-13.971,14.76-22.134,27.191-21.35c13.009,0.786,21.75,10.675,18.835,25.584
			c-0.192,1.255-1.555,2.042-3.105,1.885c-1.556-0.156-2.525-1.255-2.33-2.513c2.33-12.711-4.468-19.932-13.788-20.4
			c-9.323-0.63-19.034,5.65-21.363,17.421c-0.972,5.179,0,9.416,4.659,13.809c4.466,4.395,6.798,6.118,14.375,11.144
			c0.771,0.471,1.355,0.783,1.553,0.942c4.075,2.669,6.214,4.239,9.904,7.218c3.689,2.983,5.435,5.178,7.767,8.636
			c2.137,3.45,2.914,6.746,2.914,10.985c-0.193,4.393-0.972,10.514-7.77,14.904c-6.798,4.4-15.922,5.81-23.887,3.614
			c-4.075-1.102-7.184-3.14-9.32-6.28L258.124,209.667z"/>
	</g>
</g>
</svg>
